{"title":"Raja Natwarlal (2014) 1 CD x264 SAP DvDSCR RIP-MP3-Team Telly Ex","uid":10919824,"size":737264748,"categoryP":"video","categoryS":"movies","magnet":"?xt=urn:btih:08b2fd963e7b9dbfa3359d00bab10c0902d2dcde&amp;dn=Raja+Natwarlal+%282014%29+1+CD+x264+SAP+DvDSCR+RIP-MP3-Team+Telly+Ex&amp;tr=udp%3A%2F%2Ftracker.openbittorrent.com%3A80&amp;tr=udp%3A%2F%2Fopen.demonii.com%3A1337&amp;tr=udp%3A%2F%2Ftracker.coppersurfer.tk%3A6969&amp;tr=udp%3A%2F%2Fexodus.desync.com%3A6969","seeders":1,"leechers":0,"uploader":"TeX","files":2,"time":1409324337,"description":"[img]http://i.imgur.com/RHvZtyX.jpg[/img]\n\n[img]http://tellypremium.com/images/2014/08/29/5ccaa3ef6015df8c.png[/img]\n[img]http://tellypremium.com/images/2014/08/29/f6fef4576464d81a.png[/img]\n[img]http://tellypremium.com/images/2014/08/29/7f396cf23f544648.png[/img]\n\n[mediainfo]General\nComplete name : RAJA NATWARLAL(2014)[New Source]1 CD x264 SAP TellySCR RIP-MP3-Team Telly Exclusive/RAJA NATWARLAL(2014)[New Source]1 CD x264 SAP TellySCR RIP-MP3-Team Telly Exclusive.mp4\nFormat : MPEG-4\nFormat profile : Base Media\nCodec ID : isom\nFile size : 703 MiB\nDuration : 2h 16mn\nOverall bit rate : 719 Kbps\nEncoded date : UTC 2014-08-29 12:00:02\nTagged date : UTC 2014-08-29 12:00:02\n\nVideo\nID : 1\nFormat : AVC\nFormat/Info : Advanced Video Codec\nFormat profile : High &lt;a class=&quot;__cf_email__&quot; href=&quot;/cdn-cgi/l/email-protection&quot; data-cfemail=&quot;c6f7f6868af2e8f7&quot;&gt;[email&amp;#160;protected]&lt;/a&gt;&lt;script cf-hash='f9e31' type=&quot;text/javascript&quot;&gt;\n/* &lt;![CDATA[ */!function(){try{var t=&quot;currentScript&quot;in document?document.currentScript:function(){for(var t=document.getElementsByTagName(&quot;script&quot;),e=t.length;e--;)if(t[e].getAttribute(&quot;cf-hash&quot;))return t[e]}();if(t&amp;&amp;t.previousSibling){var e,r,n,i,c=t.previousSibling,a=c.getAttribute(&quot;data-cfemail&quot;);if(a){for(e=&quot;&quot;,r=parseInt(a.substr(0,2),16),n=2;a.length-n;n+=2)i=parseInt(a.substr(n,2),16)^r,e+=String.fromCharCode(i);e=document.createTextNode(e),c.parentNode.replaceChild(e,c)}}}catch(u){}}();/* ]]&gt; */&lt;/script&gt;\nFormat settings, CABAC : Yes\nFormat settings, ReFrames : 4 frames\nCodec ID : avc1\nCodec ID/Info : Advanced Video Coding\nDuration : 2h 16mn\nBit rate : 633 Kbps\nMaximum bit rate : 4 384 Kbps\nWidth : 640 pixels\nHeight : 272 pixels\nDisplay aspect ratio : 2.35:1\nFrame rate mode : Constant\nFrame rate : 25.000 fps\nColor space : YUV\nChroma subsampling : 4:2:0\nBit depth : 10 bits\nScan type : Progressive\nBits/(Pixel*Frame) : 0.145\nStream size : 622 MiB (88%)\nWriting library : x264 core 142 r2431 ac76440\nEncoding settings : cabac=1 / ref=3 / deblock=1:1:1 / analyse=0x3:0x133 / me=umh / subme=10 / psy=1 / psy_rd=1.00:0.15 / mixed_ref=1 / me_range=24 / chroma_me=1 / trellis=2 / 8x8dct=1 / cqm=0 / deadzone=21,11 / fast_pskip=1 / chroma_qp_offset=-3 / threads=48 / lookahead_threads=2 / sliced_threads=0 / nr=0 / decimate=1 / interlaced=0 / bluray_compat=0 / constrained_intra=0 / bframes=3 / b_pyramid=2 / b_adapt=2 / b_bias=0 / direct=3 / weightb=1 / open_gop=0 / weightp=2 / keyint=250 / keyint_min=25 / scenecut=40 / intra_refresh=0 / rc_lookahead=60 / rc=abr / mbtree=1 / bitrate=633 / ratetol=1.0 / qcomp=0.60 / qpmin=0 / qpmax=81 / qpstep=4 / vbv_maxrate=24000 / vbv_bufsize=24000 / nal_hrd=none / filler=0 / ip_ratio=1.40 / aq=1:1.00\nEncoded date : UTC 2014-08-29 11:55:18\nTagged date : UTC 2014-08-29 12:00:05\n\nAudio\nID : 2\nFormat : MPEG Audio\nFormat version : Version 1\nFormat profile : Layer 3\nMode : Joint stereo\nMode extension : MS Stereo\nCodec ID : 6B\nDuration : 2h 16mn\nBit rate mode : Constant\nBit rate : 80.0 Kbps\nMaximum bit rate : 83.5 Kbps\nChannel(s) : 2 channels\nSampling rate : 32.0 KHz\nCompression mode : Lossy\nStream size : 78.3 MiB (11%)\nWriting library : LAME3.99r\nEncoding settings : -m j -V 4 -q 2 -lowpass 13.5 -b 80\nEncoded date : UTC 2014-08-29 12:00:04\nTagged date : UTC 2014-08-29 12:00:05\n/[mediainfo]","torrent":{"xt":"urn:btih:08b2fd963e7b9dbfa3359d00bab10c0902d2dcde","amp;dn":"Raja+Natwarlal+%282014%29+1+CD+x264+SAP+DvDSCR+RIP-MP3-Team+Telly+Ex","amp;tr":["udp%3A%2F%2Ftracker.openbittorrent.com%3A80","udp%3A%2F%2Fopen.demonii.com%3A1337","udp%3A%2F%2Ftracker.coppersurfer.tk%3A6969","udp%3A%2F%2Fexodus.desync.com%3A6969"],"infoHash":"08b2fd963e7b9dbfa3359d00bab10c0902d2dcde","infoHashBuffer":{"type":"Buffer","data":[8,178,253,150,62,123,157,191,163,53,157,0,186,177,12,9,2,210,220,222]},"announce":[],"urlList":[]}}